<svg xmlns="http://www.w3.org/2000/svg" xmlns:xlink="http://www.w3.org/1999/xlink" width="30" zoomAndPan="magnify"
  viewBox="0 0 30 30.000001" height="30" preserveAspectRatio="xMidYMid meet" version="1.0">
  <path fill="#eb451d"
    d="M 24.261719 16.707031 C 22.109375 19.464844 21.152344 20.800781 20.582031 19.75 C 19.066406 16.945312 26.199219 13.78125 18.34375 7.179688 C 19.574219 11.449219 18.3125 14.578125 18.140625 14.507812 C 17.808594 14.375 18.726562 4.3125 11.914062 0.015625 C 11.90625 1.167969 12.960938 7.246094 10.417969 5.773438 C 6.03125 7.59375 10.230469 19.351562 10.230469 19.351562 C 10.230469 19.351562 5.621094 18.589844 6.917969 13.046875 C 6.367188 13.53125 5.734375 13.960938 5.140625 15.273438 C 3.695312 18.464844 4.113281 22.226562 6.242188 25.003906 C 7.835938 27.078125 10.207031 28.519531 12.914062 28.894531 C 13.824219 29.015625 15.082031 28.953125 15.695312 28.894531 C 20.652344 28.210938 24.472656 23.953125 24.472656 18.789062 C 24.472656 18.074219 24.398438 17.378906 24.261719 16.707031 "
    fill-opacity="1" fill-rule="nonzero" />
  <path fill="#eb451d"
    d="M 10.40625 0.773438 C 10.40625 0.773438 8.925781 0.863281 9.277344 1.886719 C 9.628906 2.910156 10.648438 3.398438 9.875 4.144531 C 11.214844 3.6875 11.035156 2.964844 10.738281 2.667969 C 10.148438 2.089844 9.691406 0.933594 10.40625 0.773438 "
    fill-opacity="1" fill-rule="nonzero" />
  <path fill="#eb451d"
    d="M 6.320312 7.265625 C 6.320312 7.265625 4.839844 7.355469 5.191406 8.378906 C 5.542969 9.402344 6.5625 9.890625 5.789062 10.636719 C 7.125 10.179688 6.949219 9.457031 6.648438 9.160156 C 6.058594 8.582031 5.601562 7.425781 6.320312 7.265625 "
    fill-opacity="1" fill-rule="nonzero" />
  <path fill="#eb451d"
    d="M 20.199219 3.894531 C 20.199219 3.894531 18.71875 3.984375 19.070312 5.007812 C 19.421875 6.03125 20.441406 6.519531 19.667969 7.265625 C 21.007812 6.808594 20.828125 6.085938 20.53125 5.789062 C 19.941406 5.210938 19.484375 4.054688 20.199219 3.894531 "
    fill-opacity="1" fill-rule="nonzero" />
  <path fill="#ff8615"
    d="M 14.164062 28.964844 C 13.714844 28.964844 13.332031 28.941406 13.027344 28.902344 C 10.59375 28.566406 8.425781 27.300781 6.917969 25.335938 C 4.992188 22.824219 4.597656 19.46875 5.882812 16.558594 C 5.988281 17.40625 6.257812 18.164062 6.699219 18.828125 C 7.929688 20.675781 10.003906 21.035156 10.09375 21.050781 L 11.519531 21.285156 L 11.03125 19.917969 C 11.023438 19.886719 10 17 9.519531 13.945312 C 9.207031 11.960938 8.9375 8.609375 10.441406 7.585938 C 10.671875 7.671875 10.898438 7.714844 11.117188 7.714844 C 11.5625 7.714844 11.960938 7.535156 12.265625 7.199219 C 13.027344 6.363281 13.050781 4.644531 12.910156 2.707031 C 16.742188 6.253906 17.054688 12.101562 17.179688 14.453125 C 17.234375 15.464844 17.257812 15.929688 17.816406 16.15625 L 17.972656 16.222656 L 18.144531 16.222656 C 18.3125 16.222656 18.628906 16.171875 18.882812 15.832031 C 19.25 15.339844 19.925781 13.324219 19.675781 10.53125 C 20.605469 11.625 21.113281 12.664062 21.226562 13.671875 C 21.371094 14.972656 20.839844 16.082031 20.324219 17.152344 C 19.730469 18.398438 19.113281 19.683594 19.835938 21.015625 C 20.214844 21.714844 20.757812 21.820312 21.050781 21.820312 C 21.828125 21.820312 22.496094 21.167969 23.617188 19.769531 C 23.589844 22 22.769531 24.140625 21.300781 25.8125 C 19.824219 27.496094 17.800781 28.589844 15.597656 28.898438 C 15.410156 28.917969 14.839844 28.964844 14.164062 28.964844 "
    fill-opacity="1" fill-rule="nonzero" />
  <path fill="#fbde57"
    d="M 14.164062 28.964844 C 13.699219 28.964844 13.414062 28.9375 13.253906 28.917969 C 11.273438 28.644531 7.554688 23.859375 8.109375 21.910156 C 10.535156 23.984375 13.941406 23.117188 13.941406 23.117188 C 13.941406 23.117188 7.757812 13.664062 14.378906 6.5 C 14.378906 9.945312 13.09375 11.402344 15.785156 17.289062 C 16.480469 18.804688 18.410156 18.003906 18.410156 18.003906 C 18.167969 18.703125 17.167969 23.199219 22.160156 22.753906 C 21.328125 26.164062 17.1875 28.652344 15.402344 28.910156 C 15.214844 28.925781 14.726562 28.964844 14.164062 28.964844 "
    fill-opacity="1" fill-rule="nonzero" />
  <path fill="#ffefb0"
    d="M 20.511719 24.960938 C 19.628906 25.421875 19.128906 26.183594 17.695312 26.085938 C 16.375 25.996094 16.320312 20.820312 16.320312 20.820312 C 16.222656 20.867188 15.144531 24.457031 13.164062 25.210938 C 11.871094 25.703125 9.894531 25.265625 9.898438 25.269531 C 10.570312 26.722656 12.765625 28.519531 13.394531 28.941406 C 14.226562 28.996094 15.183594 28.941406 15.695312 28.894531 C 15.75 28.886719 15.804688 28.878906 15.859375 28.871094 C 16.714844 28.546875 19.445312 26.609375 20.511719 24.960938 "
    fill-opacity="1" fill-rule="nonzero" />
</svg>
